:SAMPLES-PER-SECOND 30
:FULLY-SPECIFIED
:DEGREES
23
root  35.00070046 36.51911217 -14.71506404 9.733645439 -0.0735488981 2.816051483
lowerback  -8.163170815 0.4657109082 1.30208981
upperback  -3.776930094 0.2084619999 -2.728270054
thorax  0.6863600016 -0.08300869912 -3.535919905
lowerneck  -15.27970028 2.872020006 2.045429945
upperneck  15.20460033 2.552910089 3.818200111
head  7.159759998 1.620880008 1.169330001
lclavicle  0 -4.497500157e-015 -2.743230041e-014
lhumerus  -44.05490112 25.40870094 71.17269897
lradius  -0.4578237534 -6.507048965e-006 28.91790199
lwrist  4.824992743e-007 -3.790274832e-007 -28.15469933
lhand  -4.417598518e-031 -36.93370056 -10.70590019
lfingers  90 7.125020027 -90
lthumb  94.83841487 -25.53999318 101.1078154
rclavicle  0 -4.497500157e-015 -2.743230041e-014
rhumerus  -43.45830154 -19.1637001 -72.28510284
rradius  -5.16745672e-007 2.214343908e-008 48.61220169
rwrist  1.129822067e-006 0.001802438172 -156.0399933
rhand  -1.767715598e-031 -2.828170061 -7.425320148
rfingers  -90 -7.125020027 -90
rthumb  -86.51129294 -8.205743465 -66.87077314
rfemur  -12.60783768 15.24207592 13.56559658
rtibia  -0.6522058249 0.6033119559 20.49689674
rfoot  -0.3172088861 -19.39020538 -39.27490997
rtoes  4.077286091 19.59666582 -101.9986358
lfemur  -9.954669952 -16.78442764 -18.54226112
ltibia  1.898860931 1.100209594 15.56245232
lfoot  0.5711950064 -27.94447327 34.16319275
ltoes  -8.701418428 -18.078123 -116.2525497
24
root  34.99939686 36.52048787 -14.7121069 9.756480217 -0.01777482778 2.803772449
lowerback  -8.157360077 0.4651680291 1.275550365
upperback  -3.774490118 0.2099670023 -2.732259989
thorax  0.6857069731 -0.08189830184 -3.524879932
lowerneck  -15.26720047 2.911789894 2.101840019
upperneck  15.09020042 2.611079931 3.775140047
head  7.12112999 1.648489952 1.150650024
lclavicle  0 -4.497500157e-015 -2.743230041e-014
lhumerus  -44.07640076 25.44079971 71.1651001
lradius  -0.4586923122 -6.507048965e-006 28.93600082
lwrist  4.824992743e-007 -3.790274832e-007 -28.11450005
lhand  -0 -36.98429871 -10.71220016
lfingers  90 7.125020027 -90
lthumb  94.8635401 -25.54429634 101.1626114
rclavicle  0 -4.497500157e-015 -2.743230041e-014
rhumerus  -43.37110138 -18.3205986 -72.68759918
rradius  -5.16745672e-007 2.214343908e-008 49.56470108
rwrist  1.129822067e-006 0.001802438172 -157.0720062
rhand  -1.767643932e-031 -2.780750036 -7.426239967
rfingers  -90 -7.125020027 -90
rthumb  -86.50287629 -8.207292591 -66.8246215
rfemur  -12.5993557 15.20088577 13.58414459
rtibia  -0.6466959119 0.5966742635 20.45417786
rfoot  -0.3082585633 -19.39275742 -39.29827881
rtoes  4.077712132 19.59658051 -101.9999061
lfemur  -10.02270412 -16.78540611 -18.49394226
ltibia  1.87432611 1.117449641 15.62322998
lfoot  0.5746042728 -27.99790573 34.12488174
ltoes  -8.718934875 -18.06989996 -116.3090097
25
root  35.00142435 36.52271361 -14.70982709 9.804395676 0.0260001868 2.81611824
lowerback  -8.133651733 0.4655346572 1.282341838
upperback  -3.759150028 0.2246749997 -2.742000103
thorax  0.6895580292 -0.07354430109 -3.536910057
lowerneck  -15.24409962 2.937649965 2.127650023
upperneck  14.93200016 2.650640011 3.780040026
head  7.065609932 1.669160008 1.149729967
lclavicle  0 -4.497500157e-015 -2.743230041e-014
lhumerus  -44.05319977 25.38979912 71.18209839
lradius  -0.4595514536 -6.507048965e-006 28.94002724
lwrist  4.824992743e-007 -3.790274832e-007 -28.05329895
lhand  -4.419251534e-031 -36.96220016 -10.70400047
lfingers  90 7.125020027 -90
lthumb  94.85142675 -25.53707256 101.1382397
rclavicle  0 -4.497500157e-015 -2.743230041e-014
rhumerus  -43.29399872 -17.61950111 -73.03340149
rradius  -5.16745672e-007 2.214343908e-008 50.56919861
rwrist  1.129822067e-006 0.001802438172 -158.0339966
rhand  -3.534725302e-031 -2.586210012 -7.559510231
rfingers  -90 -7.125020027 -90
rthumb  -86.52009333 -8.094882938 -66.64269016
rfemur  -12.64454746 15.18968773 13.56435871
rtibia  -0.660736084 0.6016266346 20.45307541
rfoot  -0.3146769106 -19.33696365 -39.3421669
rtoes  4.075155514 19.59709229 -101.9922835
lfemur  -10.13924503 -16.82103157 -18.47210312
ltibia  1.842460394 1.100200295 15.70832634
lfoot  0.5643936992 -27.99370193 34.05890656
ltoes  -8.738665583 -18.06061251 -116.3726366
26
root  35.00417875 36.52452184 -14.70640137 9.845072746 0.07915578038 2.83058238
lowerback  -8.094350815 0.4660445154 1.289571047
upperback  -3.747659922 0.2340819985 -2.755840063
thorax  0.680463016 -0.06819940358 -3.554430008
lowerneck  -15.19900036 2.943759918 2.123270035
upperneck  14.72900009 2.669150114 3.807509899
head  6.991179943 1.679430008 1.157770038
lclavicle  0 -4.497500157e-015 -2.743230041e-014
lhumerus  -44.0326004 25.3159008 71.19740295
lradius  -0.4604023695 -6.507048965e-006 28.95750237
lwrist  4.824992743e-007 -3.790274832e-007 -28.00909996
lhand  -0 -36.95000076 -10.71609974
lfingers  90 7.125020027 -90
lthumb  94.84828971 -25.54945248 101.1262778
rclavicle  0 -4.497500157e-015 -2.743230041e-014
rhumerus  -43.21920013 -17.20899963 -73.26290131
rradius  -5.16745672e-007 2.214343908e-008 51.59999847
rwrist  1.129822067e-006 0.001802438172 -158.6109924
rhand  -1.767346803e-031 -2.574810028 -7.73443985
rfingers  -90 -7.125020027 -90
rthumb  -86.58805403 -7.934849772 -66.64129338
rfemur  -12.67928028 15.14970589 13.54647827
rtibia  -0.6716447473 0.585282445 20.45708275
rfoot  -0.3294403255 -19.34194756 -39.37446594
rtoes  4.052459762 19.60162071 -101.924624
lfemur  -10.20569897 -16.88510132 -18.47698975
ltibia  1.837556958 1.075085878 15.74188042
lfoot  0.5495613217 -27.95036888 34.01038742
ltoes  -8.717515768 -18.07056693 -116.3044346
27
root  35.00588785 36.52643519 -14.70469978 9.886742592 0.1204874367 2.829026222
lowerback  -8.094313622 0.4667753279 1.247658253
upperback  -3.722379923 0.2322559953 -2.747380018
thorax  0.7062590122 -0.06697785109 -3.521539927
lowerneck  -15.17300034 2.964790106 2.140959978
upperneck  14.5678997 2.710129976 3.783449888
head  6.934559822 1.697870016 1.148790002
lclavicle  0 -4.497500157e-015 -2.743230041e-014
lhumerus  -44.04050064 25.39920044 71.16629791
lradius  -0.4612460732 -6.507048965e-006 28.94790268
lwrist  4.824992743e-007 -3.790274832e-007 -28.06979942
lhand  -4.418578408e-031 -36.95059967 -10.63599968
lfingers  90 7.125020027 -90
lthumb  94.83143233 -25.4707081 101.1195582
rclavicle  0 -4.497500157e-015 -2.743230041e-014
rhumerus  -43.07329941 -16.60410118 -73.59790039
rradius  -5.16745672e-007 2.214343908e-008 52.61709976
rwrist  1.129822067e-006 0.001802438172 -159.279007
rhand  -1.767255011e-031 -2.507760048 -7.639910221
rfingers  -90 -7.125020027 -90
rthumb  -86.5378806 -8.025251906 -66.57076452
rfemur  -12.71589279 15.09728336 13.54327869
rtibia  -0.6760733128 0.588101685 20.45064735
rfoot  -0.3197113872 -19.31098557 -39.35551453
rtoes  4.050399341 19.60203051 -101.9184823
lfemur  -10.28092957 -16.88292122 -18.44629669
ltibia  1.822110176 1.095115185 15.78037071
lfoot  0.5601174831 -27.99900055 33.99000931
ltoes  -8.712032533 -18.07314272 -116.2867587
28
root  35.00480351 36.52752854 -14.70070636 9.91556263 0.1757376045 2.838671923
lowerback  -8.087862015 0.4678046405 1.26767385
upperback  -3.709739923 0.2436670065 -2.762409925
thorax  0.7166799903 -0.06759981811 -3.548130035
lowerneck  -15.14239979 2.988650084 2.190779924
upperneck  14.41670036 2.745049953 3.764359951
head  6.881060123 1.715149999 1.135599971
lclavicle  0 -4.497500157e-015 -2.743230041e-014
lhumerus  -44.02590179 25.41690063 71.14620209
lradius  -0.4620837569 -6.507048965e-006 28.92499924
lwrist  4.824992743e-007 -3.790274832e-007 -28.05200005
lhand  -4.420691827e-031 -36.98699951 -10.59319973
lfingers  90 7.125020027 -90
lthumb  94.83928472 -25.42742386 101.1545138
rclavicle  0 -4.497500157e-015 -2.743230041e-014
rhumerus  -42.91970062 -16.17149925 -73.79019928
rradius  -5.16745672e-007 2.214343908e-008 53.5461998
rwrist  1.129822067e-006 0.001802438172 -160.3930054
rhand  -1.767014456e-031 -2.322849989 -7.412879944
rfingers  -90 -7.125020027 -90
rthumb  -86.41200974 -8.243015807 -66.37767088
rfemur  -12.75161171 15.08949566 13.54023266
rtibia  -0.6836813092 0.6077952981 20.48504448
rfoot  -0.3394430578 -19.27645302 -39.38989258
rtoes  4.076469224 19.59682935 -101.9962003
lfemur  -10.23773098 -16.87135696 -18.47114182
ltibia  1.886524558 1.14344871 15.6699028
lfoot  0.5707330704 -28.03676605 33.98350906
ltoes  -8.685216531 -18.08571043 -116.2003489
